REM GENRE "Genre"
REM DATE 2013
REM DISCID 123456789
PERFORMER "Artist"
TITLE "Album"
FILE "01 - Song01.wav" WAVE
  TRACK 01 AUDIO
    TITLE "Song01"
    INDEX 00 00:00:00
    INDEX 01 00:00:00
    SONGWRITER "Song Writer A"
  TRACK 02 AUDIO
    TITLE "Song02"
FILE "02 - Song02.wav" WAVE
    INDEX 01 00:00:00
    SONGWRITER "Song Writer B"
  TRACK 03 AUDIO
    TITLE "Song03"
    INDEX 00 00:36:22
FILE "03 - Song03.wav" WAVE
    INDEX 01 00:00:00
    SONGWRITER "Song Writer C"
  TRACK 04 AUDIO
    TITLE "Song04"
    INDEX 00 01:14:44
FILE "04 - Song04.wav" WAVE
    INDEX 01 00:00:00
    SONGWRITER "Song Writer D"
